# xmcd
#
# Track frame offsets: 
#        150
#        12111
#        24264
#        36687
#        49026
#        61753
#        73984
#        85649
#        95508
#        105308
#        117471
#        128587
#        140248
#        155340
#        166887
#        176497
#        189008
#        199707
#        212261
#        226671
#        240544
#        250227
#        257113
#        265628
#
# Disc length: 3662 seconds
#
# Revision: 0
# Processed by: cddbd v1.5.2PL0 Copyright (c) Steve Scherf et al.
# Submitted via: ExactAudioCopy v1.0b3
#
DISCID=360e4c18
DTITLE=Golden Gate Quartet - Milestones Of Legends CD4
DYEAR=1900
DGENRE=Gospel
TTITLE0=My Prayer
TTITLE1=What Did Jesus Say
TTITLE2=The Valley Of Time
TTITLE3=Daniel Saw The Stone
TTITLE4=Jezebel
TTITLE5=Time's Winding Up
TTITLE6=God Told Nicodemus
TTITLE7=The Sun Didn't Shine
TTITLE8=Blind Barnabus'
TTITLE9=Anyhow
TTITLE10=Didn't It Rain
TTITLE11=Toll The Bell Easy
TTITLE12=He Never Said A Mumblin' Word
TTITLE13=Moses Smote The Waters
TTITLE14=Handwriting On The Wall
TTITLE15=Run On
TTITLE16=Dip Your Fingers In The Water
TTITLE17=My Time Done Come
TTITLE18=Stalin Wasn't Stallin'
TTITLE19=Comin' In On  A Wing And A Prayer
TTITLE20=Julius Caesar
TTITLE21=Summer Rain
TTITLE22=The Gospel Train
TTITLE23=The Preacher And The Bear
EXTD=
EXTT0=
EXTT1=
EXTT2=
EXTT3=
EXTT4=
EXTT5=
EXTT6=
EXTT7=
EXTT8=
EXTT9=
EXTT10=
EXTT11=
EXTT12=
EXTT13=
EXTT14=
EXTT15=
EXTT16=
EXTT17=
EXTT18=
EXTT19=
EXTT20=
EXTT21=
EXTT22=
EXTT23=
PLAYORDER=
